<mxfile host="app.diagrams.net" modified="2021-10-26T17:49:31.458Z" agent="5.0 (Windows NT 10.0; Win64; x64) AppleWebKit/537.36 (KHTML, like Gecko) Chrome/95.0.4638.54 Safari/537.36" etag="hwu0lWSRYrZKqww9YWna" version="15.5.9" type="github">
  <diagram id="ZxPDDsvNtz_uIJZCt8pO" name="Page-1">
    <mxGraphModel dx="920" dy="446" grid="1" gridSize="10" guides="1" tooltips="1" connect="1" arrows="1" fold="1" page="1" pageScale="1" pageWidth="1169" pageHeight="827" math="0" shadow="0">
      <root>
        <mxCell id="0" />
        <mxCell id="1" parent="0" />
        <mxCell id="02b5Ndpt0IL6jJdlj1nD-1" value="CadastroCliente" style="whiteSpace=wrap;html=1;align=center;fillColor=#f8cecc;strokeColor=#b85450;" vertex="1" parent="1">
          <mxGeometry x="90" y="100" width="100" height="40" as="geometry" />
        </mxCell>
        <mxCell id="02b5Ndpt0IL6jJdlj1nD-2" value="CadastroEmpresa" style="whiteSpace=wrap;html=1;align=center;fillColor=#f8cecc;strokeColor=#b85450;" vertex="1" parent="1">
          <mxGeometry x="340" y="433" width="100" height="40" as="geometry" />
        </mxCell>
        <mxCell id="02b5Ndpt0IL6jJdlj1nD-3" value="CadastroDono" style="whiteSpace=wrap;html=1;align=center;fillColor=#f8cecc;strokeColor=#b85450;" vertex="1" parent="1">
          <mxGeometry x="590" y="100" width="100" height="40" as="geometry" />
        </mxCell>
        <mxCell id="02b5Ndpt0IL6jJdlj1nD-4" value="id_dono" style="ellipse;whiteSpace=wrap;html=1;align=center;fontStyle=4;fillColor=#e1d5e7;strokeColor=#9673a6;" vertex="1" parent="1">
          <mxGeometry x="520" y="105" width="60" height="30" as="geometry" />
        </mxCell>
        <mxCell id="02b5Ndpt0IL6jJdlj1nD-6" value="id_cliente" style="ellipse;whiteSpace=wrap;html=1;align=center;fontStyle=4;fillColor=#e1d5e7;strokeColor=#9673a6;" vertex="1" parent="1">
          <mxGeometry x="20" y="100" width="60" height="40" as="geometry" />
        </mxCell>
        <mxCell id="02b5Ndpt0IL6jJdlj1nD-8" value="id_empresa" style="ellipse;whiteSpace=wrap;html=1;align=center;fontStyle=4;fillColor=#e1d5e7;strokeColor=#9673a6;" vertex="1" parent="1">
          <mxGeometry x="270" y="433" width="60" height="40" as="geometry" />
        </mxCell>
        <mxCell id="02b5Ndpt0IL6jJdlj1nD-9" value="id_dono" style="ellipse;whiteSpace=wrap;html=1;align=center;fontStyle=4;fillColor=#e1d5e7;strokeColor=#9673a6;" vertex="1" parent="1">
          <mxGeometry x="450" y="433" width="60" height="40" as="geometry" />
        </mxCell>
      </root>
    </mxGraphModel>
  </diagram>
</mxfile>
